<svg width="0" height="0" class="hidden">
  <symbol   xmlns="http://www.w3.org/2000/svg" viewBox="0 0 24 24" id="Checkmark">
    <path d="M12 0C5.373 0 0 5.373 0 12C0 18.627 5.373 24 12 24C18.627 24 24 18.627 24 12C24 5.373 18.627 0 12 0ZM10.75 17.292L6.25 12.928L8.107 11.07L10.75 13.576L16.393 7.792L18.25 9.649L10.75 17.292Z" fill="#2ED8AF"></path>
  </symbol>
  <symbol   xmlns="http://www.w3.org/2000/svg" viewBox="0 0 24 20" id="Hamburger Menu">
    <path d="M24 4H0V0H24V4ZM24 8H0V12H24V8ZM24 16H0V20H24V16Z" ></path>
  </symbol>
  <symbol   xmlns="http://www.w3.org/2000/svg" viewBox="0 0 24 24" id="Like">
    <path d="M6.28 3C9.516 3.001 11.253 6.491 12 8.031C12.75 6.484 14.469 3.01 17.726 3.01C19.784 3.01 22 4.319 22 7.192C22 10.634 17.256 15.043 12 20.192C6.742 15.041 2 10.633 2 7.192C2 4.516 3.965 2.999 6.28 3ZM6.281 1C3.098 1 0 3.187 0 7.192C0 11.853 5.57 16.619 12 23C18.43 16.619 24 11.853 24 7.192C24 3.181 20.903 1.01 17.726 1.01C15.522 1.01 13.28 2.052 12 4.248C10.715 2.042 8.478 1 6.281 1Z" fill="#DF1414"></path>
  </symbol>
  <symbol   xmlns="http://www.w3.org/2000/svg" viewBox="0 0 25 20" id="Twitter (Black)">
    <path d="M25 2.309C24.117 2.701 23.168 2.965 22.172 3.084C23.189 2.475 23.97 1.51 24.337 0.36C23.386 0.924 22.332 1.334 21.21 1.555C20.313 0.598 19.032 0 17.616 0C14.437 0 12.101 2.966 12.819 6.045C8.728 5.84 5.1 3.88 2.671 0.901C1.381 3.114 2.002 6.009 4.194 7.475C3.388 7.449 2.628 7.228 1.965 6.859C1.911 9.14 3.546 11.274 5.914 11.749C5.221 11.937 4.462 11.981 3.69 11.833C4.316 13.789 6.134 15.212 8.29 15.252C6.22 16.875 3.612 17.6 1 17.292C3.179 18.689 5.768 19.504 8.548 19.504C17.69 19.504 22.855 11.783 22.543 4.858C23.505 4.163 24.34 3.296 25 2.309Z" fill="black"></path>
  </symbol> 
  <symbol   xmlns="http://www.w3.org/2000/svg" viewBox="0 0 24 24" id="Twitter (Blue)">
    <g clip-path="url(#clip0)">
      <path d="M24 4.55705C23.117 4.94905 22.168 5.21305 21.172 5.33205C22.189 4.72305 22.97 3.75805 23.337 2.60805C22.386 3.17205 21.332 3.58205 20.21 3.80305C19.313 2.84605 18.032 2.24805 16.616 2.24805C13.437 2.24805 11.101 5.21405 11.819 8.29305C7.728 8.08805 4.1 6.12805 1.671 3.14905C0.381 5.36205 1.002 8.25705 3.194 9.72305C2.388 9.69705 1.628 9.47605 0.965 9.10705C0.911 11.388 2.546 13.522 4.914 13.997C4.221 14.185 3.462 14.229 2.69 14.081C3.316 16.037 5.134 17.46 7.29 17.5C5.22 19.123 2.612 19.848 0 19.54C2.179 20.937 4.768 21.752 7.548 21.752C16.69 21.752 21.855 14.031 21.543 7.10605C22.505 6.41105 23.34 5.54405 24 4.55705Z" fill="#00ACEE"></path>
    </g>
    <defs>
      <clipPath id="clip0">
        <rect width="24" height="24" fill="white"></rect>
      </clipPath>
    </defs>
  </symbol> 
  <symbol fill="none" xmlns="http://www.w3.org/2000/svg" viewBox="0 0 24 20" id="Twitter">
    <path d="M24 2.55699C23.117 2.94899 22.168 3.21299 21.172 3.33199C22.189 2.72299 22.97 1.75799 23.337 0.607986C22.386 1.17199 21.332 1.58199 20.21 1.80299C19.313 0.845986 18.032 0.247986 16.616 0.247986C13.437 0.247986 11.101 3.21399 11.819 6.29299C7.728 6.08799 4.1 4.12799 1.671 1.14899C0.381 3.36199 1.002 6.25699 3.194 7.72299C2.388 7.69699 1.628 7.47599 0.965 7.10699C0.911 9.38799 2.546 11.522 4.914 11.997C4.221 12.185 3.462 12.229 2.69 12.081C3.316 14.037 5.134 15.46 7.29 15.5C5.22 17.123 2.612 17.848 0 17.54C2.179 18.937 4.768 19.752 7.548 19.752C16.69 19.752 21.855 12.031 21.543 5.10599C22.505 4.41099 23.34 3.54399 24 2.55699Z" fill="white"></path>
  </symbol>
</svg> 